<svg width="12" height="16" viewBox="0 0 12 16" fill="none" xmlns="http://www.w3.org/2000/svg">
<g opacity="0.3">
<path d="M0.638478 5.09814C0.568998 5.17676 0.513873 5.27016 0.476261 5.37298C0.438649 5.4758 0.419289 5.58604 0.419289 5.69736C0.419289 5.80869 0.438649 5.91892 0.476261 6.02174C0.513873 6.12457 0.568998 6.21796 0.638478 6.29658L5.59842 11.9232C5.65364 11.9859 5.71923 12.0357 5.79143 12.0697C5.86364 12.1037 5.94104 12.1212 6.01921 12.1212C6.09738 12.1212 6.17478 12.1037 6.24699 12.0697C6.31919 12.0357 6.38478 11.9859 6.44 11.9232L11.3999 6.29658C11.6924 5.96481 11.6924 5.42991 11.3999 5.09814C11.1075 4.76637 10.8004 5.04121 10.5079 5.37298L7.90791 8.33649L5.99994 10.4242L1.19995 5.09088C1.19995 5.09088 0.924973 4.76637 0.638478 5.09814Z" fill="black"/>
</g>
</svg>
