<svg width="24" height="24" viewBox="0 0 24 24" fill="none" xmlns="http://www.w3.org/2000/svg">
<path d="M17.9347 21C17.0936 21 16.2715 20.7471 15.5721 20.2732C14.8728 19.7994 14.3277 19.1258 14.0059 18.3378C13.684 17.5498 13.5998 16.6827 13.7639 15.8462C13.928 15.0096 14.333 14.2412 14.9277 13.6381C15.5224 13.035 16.2802 12.6243 17.1051 12.4579C17.93 12.2915 18.7851 12.3769 19.5621 12.7033C20.3392 13.0297 21.0033 13.5824 21.4706 14.2916C21.9379 15.0008 22.1873 15.8346 22.1873 16.6875C22.1861 17.8309 21.7376 18.927 20.9404 19.7355C20.1431 20.544 19.0622 20.9988 17.9347 21V21ZM17.9347 13.875C17.3862 13.875 16.85 14.04 16.3939 14.349C15.9378 14.658 15.5823 15.0973 15.3724 15.6112C15.1625 16.1251 15.1076 16.6906 15.2146 17.2362C15.3216 17.7818 15.5858 18.2829 15.9736 18.6762C16.3615 19.0696 16.8557 19.3374 17.3937 19.446C17.9316 19.5545 18.4893 19.4988 18.9961 19.2859C19.5028 19.073 19.936 18.7126 20.2407 18.25C20.5455 17.7875 20.7081 17.2438 20.7081 16.6875C20.7073 15.9418 20.4148 15.227 19.8949 14.6997C19.3749 14.1725 18.67 13.8759 17.9347 13.875V13.875Z" fill="#1D2E5B"/>
<path d="M5.73172 21C4.89064 21 4.06845 20.7471 3.36912 20.2732C2.66979 19.7994 2.12473 19.1258 1.80287 18.3378C1.481 17.5498 1.39678 16.6827 1.56087 15.8462C1.72496 15.0096 2.12997 14.2412 2.72471 13.6381C3.31944 13.035 4.07717 12.6243 4.90209 12.4579C5.727 12.2915 6.58205 12.3769 7.35911 12.7033C8.13616 13.0297 8.80032 13.5824 9.2676 14.2916C9.73488 15.0008 9.98428 15.8346 9.98428 16.6875C9.98306 17.8309 9.53463 18.927 8.73739 19.7355C7.94014 20.544 6.8592 20.9988 5.73172 21V21ZM5.73172 13.875C5.18319 13.875 4.64698 14.04 4.1909 14.349C3.73481 14.658 3.37934 15.0973 3.16942 15.6112C2.95951 16.1251 2.90459 16.6906 3.0116 17.2362C3.11861 17.7818 3.38276 18.2829 3.77062 18.6762C4.15849 19.0696 4.65267 19.3374 5.19066 19.446C5.72864 19.5545 6.28628 19.4988 6.79306 19.2859C7.29983 19.073 7.73298 18.7126 8.03773 18.25C8.34247 17.7875 8.50513 17.2438 8.50513 16.6875C8.50428 15.9418 8.2118 15.227 7.69187 14.6997C7.17194 14.1725 6.46701 13.8759 5.73172 13.875V13.875Z" fill="#1D2E5B"/>
<path d="M14.7915 6.00005C14.9863 6.00073 15.1794 5.96225 15.3594 5.88681C15.5395 5.81138 15.703 5.7005 15.8406 5.56058C15.9781 5.42065 16.087 5.25447 16.1608 5.07163C16.2346 4.88879 16.272 4.69293 16.2707 4.49536C16.2728 4.29878 16.2363 4.10374 16.1633 3.92164C16.0902 3.73954 15.9821 3.57403 15.8452 3.4348C15.7084 3.29558 15.5455 3.18542 15.3662 3.11077C15.1868 3.03612 14.9946 2.99848 14.8008 3.00005C14.6065 2.99943 14.4141 3.03762 14.2344 3.11243C14.0547 3.18725 13.8913 3.29722 13.7535 3.43607C13.6157 3.57492 13.5063 3.73994 13.4314 3.92169C13.3565 4.10344 13.3176 4.29838 13.317 4.49536C13.3164 4.69234 13.354 4.88752 13.4278 5.06974C13.5016 5.25197 13.61 5.41767 13.747 5.55739C13.8839 5.69712 14.0466 5.80812 14.2258 5.88407C14.4051 5.96002 14.5973 5.99943 14.7915 6.00005V6.00005Z" fill="#1D2E5B"/>
<path d="M16.9895 9.00003H14.9667C14.9335 9.00004 14.901 8.99099 14.8724 8.97384C14.8439 8.95668 14.8204 8.93205 14.8045 8.90253L13.3373 6.17581C13.234 5.97318 13.085 5.79807 12.9025 5.66467C12.72 5.53127 12.5091 5.44333 12.2868 5.40795C12.0646 5.37258 11.8372 5.39077 11.6232 5.46106C11.4091 5.53135 11.2144 5.65175 11.0548 5.81253L7.82565 9.11253C7.55436 9.39333 7.40037 9.76945 7.39577 10.1625C7.39577 10.9782 7.97818 11.2688 8.2509 11.4328C9.56827 12.2025 10.496 12.7655 11.0049 13.0782C11.032 13.0949 11.0543 13.1183 11.0699 13.1463C11.0854 13.1743 11.0936 13.2059 11.0936 13.238V16.478C11.0936 16.8816 11.3996 17.228 11.7976 17.2482C11.8976 17.253 11.9974 17.2373 12.0912 17.2019C12.1849 17.1666 12.2706 17.1123 12.3431 17.0423C12.4156 16.9724 12.4733 16.8883 12.5128 16.7951C12.5522 16.7018 12.5727 16.6015 12.5728 16.5V12.4688C12.5729 12.3497 12.545 12.2324 12.4914 12.1264C12.4379 12.0204 12.3603 11.9289 12.265 11.8594L10.5547 10.6121C10.5332 10.5965 10.5153 10.5764 10.5021 10.5532C10.4889 10.53 10.4808 10.5043 10.4782 10.4776C10.4757 10.451 10.4788 10.4241 10.4874 10.3988C10.4959 10.3734 10.5097 10.3503 10.5279 10.3308L12.4693 8.23128C12.4892 8.20968 12.5138 8.19316 12.5412 8.18307C12.5686 8.17297 12.598 8.1696 12.6269 8.17321C12.6559 8.17682 12.6835 8.18731 12.7077 8.20384C12.7319 8.22037 12.7519 8.24246 12.766 8.26831L13.7746 10.1143C13.8387 10.2313 13.9325 10.3288 14.0463 10.3966C14.1601 10.4644 14.2897 10.5001 14.4217 10.5H17.0103C17.1104 10.5002 17.2096 10.4796 17.3017 10.4397C17.3939 10.3998 17.4771 10.3413 17.5462 10.2678C17.6154 10.1942 17.6691 10.1073 17.7041 10.012C17.7391 9.91685 17.7547 9.81543 17.7498 9.71394C17.7304 9.31035 17.3874 9.00003 16.9895 9.00003Z" fill="#1D2E5B"/>
</svg>
